<?xml version="1.0" standalone="no"?>
<!DOCTYPE svg PUBLIC "-//W3C//DTD SVG 20010904//EN"
 "http://www.w3.org/TR/2001/REC-SVG-20010904/DTD/svg10.dtd">
<svg version="1.0" xmlns="http://www.w3.org/2000/svg"
 width="2031.000000pt" height="2031.000000pt" viewBox="0 0 2031.000000 2031.000000"
 preserveAspectRatio="xMidYMid meet">
<metadata>
Created by potrace 1.11, written by Peter Selinger 2001-2013
</metadata>
<g transform="translate(0.000000,2031.000000) scale(0.100000,-0.100000)"
fill="#000000" stroke="none">
<path d="M10028 20265 c-1 -1 -28 -6 -58 -9 -188 -20 -424 -115 -600 -242
-216 -155 -397 -398 -478 -639 -72 -218 -74 -243 -75 -823 l0 -502 -36 -10
c-20 -5 -49 -12 -66 -15 -16 -2 -43 -7 -60 -10 -16 -3 -38 -8 -47 -11 -9 -3
-25 -7 -35 -9 -10 -2 -38 -8 -63 -14 -25 -7 -52 -13 -61 -16 -455 -108 -967
-299 -1434 -532 -156 -78 -202 -103 -343 -184 -47 -27 -86 -49 -88 -49 -2 0
-23 -13 -47 -30 -25 -16 -47 -30 -50 -30 -6 0 -314 -205 -402 -267 -121 -85
-409 -309 -466 -363 -9 -8 -47 -42 -85 -75 -136 -119 -172 -152 -344 -325
-433 -434 -796 -907 -1105 -1438 -102 -176 -242 -449 -332 -652 -195 -436
-383 -1022 -459 -1430 -3 -14 -7 -32 -9 -40 -2 -8 -7 -31 -10 -50 -3 -19 -10
-57 -15 -85 -6 -27 -12 -64 -14 -82 -3 -18 -7 -40 -10 -50 -2 -10 -8 -45 -11
-78 -4 -32 -8 -62 -10 -65 -1 -3 -6 -36 -9 -75 -4 -38 -9 -81 -11 -95 -4 -33
-18 -159 -20 -190 -2 -26 -16 -254 -21 -330 -1 -25 -3 -901 -3 -1947 l-1
-1901 -667 -666 -666 -667 0 -889 0 -890 -667 0 -667 0 0 -652 c-1 -359 1
-660 3 -668 3 -13 1085 -15 9669 -15 l9665 0 0 667 0 668 -667 2 -668 3 0 887
0 888 -667 667 -666 668 0 1895 c0 1042 -3 1940 -6 1995 -7 116 -17 255 -21
305 -9 101 -16 178 -20 200 -4 24 -8 55 -20 145 -7 61 -14 108 -19 132 -3 11
-8 43 -12 70 -3 26 -8 57 -11 68 -27 139 -34 175 -39 205 -3 19 -8 38 -10 41
-2 3 -6 20 -9 37 -8 47 -59 253 -89 362 -135 480 -329 963 -569 1415 -56 105
-62 116 -147 260 -176 300 -408 628 -634 900 -55 66 -103 122 -106 125 -3 3
-38 43 -79 90 -41 47 -160 171 -265 275 -167 167 -228 224 -371 348 -16 14
-41 35 -55 48 -14 12 -56 47 -95 78 -38 31 -72 58 -75 61 -9 9 -81 64 -191
146 -479 355 -1024 658 -1594 884 -157 63 -536 191 -635 215 -8 2 -58 16 -110
30 -89 25 -314 78 -370 89 -26 4 -74 15 -100 22 -13 3 -15 68 -16 501 -1 542
-3 576 -40 713 -8 30 -16 60 -18 65 -10 42 -43 126 -72 185 -30 63 -109 197
-124 210 -3 3 -23 27 -45 55 -97 121 -242 245 -365 313 -142 79 -309 140 -441
162 -66 11 -342 23 -351 15z"/>
<path d="M5163 20227 c-12 -6 -45 -25 -74 -40 -143 -78 -614 -369 -629 -387
-3 -4 -15 -13 -28 -19 -13 -7 -98 -65 -189 -129 -90 -64 -174 -124 -187 -132
-46 -32 -273 -207 -416 -323 -37 -29 -195 -162 -200 -167 -3 -3 -36 -32 -75
-65 -38 -33 -72 -62 -75 -65 -3 -4 -52 -48 -110 -100 -188 -168 -622 -610
-771 -785 -36 -42 -94 -107 -119 -135 -8 -8 -42 -49 -75 -90 -33 -41 -62 -77
-65 -80 -3 -3 -42 -50 -86 -105 -622 -781 -1138 -1670 -1516 -2615 -129 -322
-227 -608 -347 -1015 -21 -74 -106 -402 -115 -445 -3 -14 -21 -97 -40 -185
-55 -251 -55 -230 5 -240 19 -3 54 -10 79 -15 25 -5 59 -12 75 -14 17 -3 77
-14 135 -25 128 -25 128 -25 320 -61 85 -16 166 -31 180 -34 43 -7 302 -56
377 -71 88 -18 100 -18 100 -2 1 17 12 75 23 117 5 19 11 49 13 65 6 39 44
200 56 243 5 17 8 32 5 32 -3 0 0 8 5 18 5 9 11 31 14 47 7 36 89 333 119 425
89 280 160 478 259 727 46 117 60 149 115 271 13 29 24 55 24 58 0 9 244 501
293 589 331 607 739 1186 1197 1699 139 156 445 467 600 610 185 171 449 392
660 552 58 43 111 85 118 92 8 6 23 17 35 23 11 7 26 16 31 21 116 98 876 578
915 578 5 0 14 6 20 14 10 12 3 30 -32 93 -52 92 -105 190 -160 293 -22 41
-43 80 -47 85 -4 6 -24 42 -45 80 -44 82 -80 148 -123 226 -101 184 -139 252
-175 322 -23 42 -43 77 -47 77 -3 0 -15 -6 -27 -13z"/>
<path d="M15097 20218 c-12 -20 -141 -254 -240 -438 -16 -30 -37 -68 -47 -85
-18 -31 -62 -111 -125 -230 -21 -38 -45 -83 -55 -100 -22 -37 -59 -105 -116
-211 l-43 -81 152 -88 c233 -134 707 -441 807 -522 8 -6 40 -30 70 -52 30 -22
60 -44 65 -48 6 -5 26 -19 45 -33 19 -13 37 -27 40 -30 3 -3 50 -41 105 -84
107 -85 340 -280 365 -306 8 -8 58 -53 110 -100 103 -92 428 -415 525 -521 33
-36 78 -85 100 -110 63 -69 267 -309 304 -359 19 -25 39 -49 46 -55 6 -5 51
-64 100 -130 50 -66 94 -124 98 -130 101 -126 375 -544 525 -800 119 -203 316
-583 401 -775 19 -41 44 -97 56 -125 12 -27 31 -70 42 -95 61 -136 220 -560
278 -740 34 -108 75 -240 80 -260 2 -8 14 -49 25 -90 12 -41 23 -82 26 -90 2
-8 15 -60 29 -115 34 -127 82 -337 101 -440 20 -109 23 -117 40 -111 8 3 53
12 102 21 118 21 136 24 217 40 39 8 84 17 100 20 17 2 41 7 55 10 14 3 86 16
160 30 74 14 146 27 160 30 14 3 36 7 50 10 14 2 75 14 135 25 61 12 124 24
140 27 17 2 61 11 98 19 38 8 71 14 74 14 5 0 0 46 -12 100 -3 14 -12 58 -20
98 -27 132 -136 573 -166 667 -5 17 -29 98 -54 180 -67 228 -209 634 -286 820
-7 17 -13 35 -15 40 -5 19 -121 290 -158 368 -20 43 -36 81 -36 83 0 9 -249
509 -306 614 -212 392 -584 981 -761 1205 -4 6 -41 55 -82 110 -41 55 -80 105
-85 112 -6 7 -15 18 -21 25 -161 207 -332 409 -535 632 -107 117 -502 512
-624 623 -155 142 -391 345 -521 448 -55 44 -102 82 -105 85 -14 16 -373 279
-502 368 -162 112 -396 264 -558 361 -58 34 -112 67 -120 72 -32 20 -212 119
-216 119 -2 0 -10 -10 -17 -22z"/>
<path d="M7346 1805 c18 -56 156 -294 247 -425 325 -466 799 -857 1297 -1069
41 -18 89 -39 105 -46 43 -20 295 -105 295 -100 0 2 18 -2 41 -10 48 -17 253
-61 353 -76 152 -22 301 -33 461 -33 127 0 345 11 375 19 8 2 35 6 60 9 60 8
210 35 275 51 90 21 148 36 189 50 27 9 56 18 65 20 37 7 263 96 361 142 151
71 420 230 515 305 181 142 244 196 365 318 161 160 283 307 394 475 117 177
224 371 211 384 -4 3 -1268 6 -2811 6 -2799 0 -2804 0 -2798 -20z"/>
</g>
</svg>
